<svg width="57" height="57" viewBox="0 0 57 57" fill="none" xmlns="http://www.w3.org/2000/svg">
<path fill-rule="evenodd" clip-rule="evenodd" d="M28.5 0C12.7599 0 0 12.7599 0 28.5C0 44.24 12.7599 57 28.5 57C44.24 57 57 44.24 57 28.5C57 12.7599 44.24 0 28.5 0ZM31.0909 38.8636C31.0909 40.2946 29.931 41.4545 28.5 41.4545C27.069 41.4545 25.9091 40.2946 25.9091 38.8636V31.0909H18.1364C16.7055 31.0909 15.5455 29.931 15.5455 28.5C15.5455 27.069 16.7054 25.9091 18.1364 25.9091H25.9091V18.1364C25.9091 16.7054 27.069 15.5455 28.5 15.5455C29.931 15.5455 31.0909 16.7055 31.0909 18.1364V25.9091H38.8636C40.2946 25.9091 41.4545 27.069 41.4545 28.5C41.4545 29.931 40.2946 31.0909 38.8636 31.0909H31.0909V38.8636Z" fill="#FF0011"/>
</svg>
